<svg xmlns="http://www.w3.org/2000/svg" fill="none" viewBox="0 0 59 27" height="27" width="59">
<path fill="black" d="M18.7449 0.849171C17.847 0.230674 16.6146 0.456066 15.9974 1.34947C15.378 2.24666 15.6031 3.47419 16.5018 4.09286C17.3997 4.70887 18.6294 4.48356 19.2493 3.58861C19.8709 2.69452 19.6428 1.46724 18.7449 0.849171ZM8.14113 2.68898C8.13734 1.59598 9.02637 0.702744 10.1242 0.698864C11.1938 0.695179 12.0881 1.58222 12.092 2.67523C12.0951 3.59124 11.537 4.12721 10.7748 4.53665C10.1866 4.84328 9.9328 5.04684 9.93444 5.50613C9.9353 5.76041 10.0647 5.98717 10.2695 6.21747C9.21984 5.4567 8.1464 4.191 8.14113 2.68898ZM30.6307 5.88712C29.943 6.3846 28.8145 6.04076 27.9891 5.78926C27.7549 5.71791 27.5452 5.654 27.3768 5.61884C26.2013 5.37178 25.1721 5.47244 24.0534 5.89804C21.3257 6.93715 21.2853 9.24858 23.1723 11.2285C23.4235 11.493 24.0329 11.9964 24.744 12.5838L24.744 12.5838L24.7441 12.5839C26.079 13.6865 27.7722 15.0852 28.1275 15.7557C28.7341 16.8967 28.0053 18.0698 26.7611 18.2327C26.0768 18.3248 25.5387 18.2553 24.9669 17.8203C24.3827 17.3752 24.7316 16.9796 25.1665 16.5977C26.3473 15.5622 25.9065 13.6327 24.3921 13.2113C22.8768 12.7897 21.4973 14.2101 21.969 15.7069C22.2686 16.6571 23.119 17.4035 24.1014 17.8596C25.2727 18.4036 26.6318 18.5374 27.9195 18.2791C29.3955 17.9862 30.7743 17.1763 31.2729 16.0917C31.6941 15.1727 31.4854 14.0558 30.8354 13.0865C30.1986 12.1432 29.1429 11.3391 28.1187 10.559L28.1186 10.5589C27.621 10.1799 27.1308 9.80652 26.6997 9.42558C25.8502 8.67676 25.2297 7.89657 25.3196 7.07735C25.3815 6.52763 25.7599 5.95778 26.3437 5.77073C27.2127 5.49582 28.5405 6.06085 29.3799 7.04641C30.1096 7.90242 30.4738 9.07511 30.645 9.9882L30.6307 5.88712ZM33.0259 11.9396C33.0373 15.1831 35.3711 18.3638 38.8608 18.3517C42.3506 18.3395 44.6579 15.1427 44.6467 11.8992C44.6353 8.6546 42.3055 5.47409 38.8159 5.48618C35.3262 5.49842 33.0146 8.69509 33.0259 11.9396ZM37.6944 6.36217C38.0944 5.39638 39.5355 5.392 39.9429 6.35443C41.0874 9.03877 41.1076 14.7863 39.9805 17.482C39.5776 18.4406 38.1401 18.4457 37.7333 17.4882C36.5878 14.8021 36.5677 9.0545 37.6944 6.36217ZM45.9278 6.35153L45.9126 6.3538L45.9259 6.35131L45.9278 6.35153ZM45.9278 6.35153C46.4867 6.26779 47.045 6.18447 47.6032 6.10118L47.6038 6.10109C48.5019 5.96707 49.3996 5.83311 50.2984 5.69757C50.6432 5.64642 50.8006 5.78353 50.8018 6.12875L50.8248 12.6969L50.8298 14.1316C50.8309 14.4414 50.8317 14.6638 50.7509 14.8945C50.6674 15.1228 50.5042 15.3569 50.3029 15.5875C50.241 15.6587 50.1753 15.7299 50.1094 15.8013L50.1092 15.8015L50.1092 15.8015L50.1092 15.8015L50.1092 15.8015L50.1091 15.8016L50.1091 15.8016L50.1091 15.8016C49.963 15.9598 49.8157 16.1193 49.7066 16.284C49.5483 16.5275 49.4637 16.7861 49.527 17.0334C49.5878 17.2853 49.7935 17.5259 50.0796 17.6907C50.3689 17.8564 50.7434 17.9443 51.1621 17.9652C51.5767 17.9872 52.0377 17.9418 52.7448 17.7694C52.7901 17.7593 52.8105 17.7725 52.8239 17.8151C52.8338 17.8565 52.8241 17.8803 52.7826 17.8946C51.112 18.4619 49.7963 18.34 49.0515 18.1074C48.7949 18.0262 48.6034 17.9319 48.4332 17.8281C47.014 16.9674 47.0088 15.4973 47.0052 14.4752V14.475L46.9958 11.8013L46.9823 7.92983C46.9802 7.31574 46.6716 6.43365 45.9278 6.35153ZM57.5082 6.10538C57.507 5.75783 57.3469 5.62536 57.0065 5.67582C56.417 5.76393 55.8277 5.85166 55.2387 5.93934L55.2383 5.93941L55.2378 5.93948L55.2374 5.93955L55.2369 5.93962C54.364 6.06958 53.4917 6.19945 52.6199 6.33034C53.3677 6.40994 53.6742 7.29174 53.6762 7.90645L53.7111 17.8676C53.7123 18.2146 53.8724 18.3507 54.2164 18.2986L55.2594 18.1431L55.2603 18.1429L55.2612 18.1428L55.2621 18.1427L55.263 18.1425C56.3758 17.9766 57.488 17.8107 58.5995 17.646C57.8561 17.5645 57.5452 16.6818 57.5431 16.066L57.5082 6.10538ZM15.7562 16.7208L15.7259 8.03792C15.7237 7.42063 15.4147 6.53745 14.6672 6.45983C15.9157 6.27433 17.1647 6.08738 18.4144 5.90033L19.0522 5.80489C19.3951 5.754 19.5544 5.88758 19.5556 6.2353L19.5922 16.7075C19.5944 17.3246 19.9039 18.2059 20.6522 18.2873L14.7086 18.308C15.4556 18.2213 15.7584 17.3379 15.7562 16.7208ZM7.91364 5.9404C6.74466 5.16821 5.96273 6.25004 5.63431 7.31468C5.14242 8.92801 5.1451 11.9614 5.33616 13.5841C5.42894 14.3723 5.65233 15.889 6.47591 16.4321C7.6448 17.2044 8.42984 16.1234 8.75343 15.0576C9.24265 13.4444 9.24084 10.4103 9.05158 8.7885C8.96105 7.99558 8.74472 6.48712 7.91364 5.9404ZM11.3903 7.30367C13.6006 9.5239 13.5114 13.0639 11.2477 15.2064C9.00959 17.3267 5.48093 17.3283 3.21048 15.2604C1.98761 16.5538 3.15771 18.055 4.77952 18.1296C5.55417 18.1655 6.2906 18.0148 7.02611 17.8643C7.66249 17.7341 8.29818 17.6041 8.95734 17.595C12.1046 17.5494 14.1873 20.3289 13.2334 23.3227C12.3083 26.2134 8.88871 27.495 6.41185 25.6165C5.35323 24.8114 4.46706 23.2495 5.30633 21.9422C6.15052 20.6299 8.1235 20.8232 8.74481 22.2406C9.08365 23.0131 9.03942 23.5656 8.4852 24.2232C8.41549 24.3057 8.25934 24.4114 8.07692 24.5348C7.62285 24.8421 7.00598 25.2596 7.15404 25.7051C7.35881 26.3157 8.61651 26.3744 9.06339 26.3549C9.79851 26.3258 10.431 26.1412 11.071 25.7772C12.2641 25.0931 13.1938 23.7872 13.226 22.3641C13.26 20.9218 12.368 19.5761 10.9076 19.2442C9.46176 18.9165 8.45943 19.4758 7.36997 20.0837C7.22578 20.1642 7.08006 20.2455 6.93159 20.3257C6.829 20.3812 6.72769 20.4367 6.62728 20.4917L6.62719 20.4918C5.47057 21.1258 4.43342 21.6943 2.93707 21.2875C-0.178683 20.4394 -0.137125 15.9891 2.80817 14.8423C0.730082 12.5022 0.958567 8.99644 3.35171 6.96189C5.69484 4.96895 9.22238 5.12798 11.3903 7.30367Z" clip-rule="evenodd" fill-rule="evenodd"></path>
</svg>
